<?xml version="1.0" encoding="UTF-8"?>
<!DOCTYPE svg PUBLIC "-//W3C//DTD SVG 1.1//EN" "http://www.w3.org/Graphics/SVG/1.1/DTD/svg11.dtd">
<svg xmlns="http://www.w3.org/2000/svg" version="1.1" width="380px" height="380px" style="shape-rendering:geometricPrecision; text-rendering:geometricPrecision; image-rendering:optimizeQuality; fill-rule:evenodd; clip-rule:evenodd" xmlns:xlink="http://www.w3.org/1999/xlink">
<g><path style="opacity:0.016" fill="#fefffe" d="M 54.5,149.5 C 53.1667,149.5 51.8333,149.5 50.5,149.5C 51.7985,147.901 53.4652,147.401 55.5,148C 54.944,148.383 54.6107,148.883 54.5,149.5 Z"/></g>
<g><path style="opacity:1" fill="#1fb489" d="M 48.5,153.5 C 48.5,152.5 48.5,151.5 48.5,150.5C 48.8417,149.662 49.5084,149.328 50.5,149.5C 51.8333,149.5 53.1667,149.5 54.5,149.5C 146.429,149.48 238.429,149.48 330.5,149.5C 330.5,176.5 330.5,203.5 330.5,230.5C 236.5,230.5 142.5,230.5 48.5,230.5C 48.5,204.833 48.5,179.167 48.5,153.5 Z M 66.5,167.5 C 148.5,167.5 230.5,167.5 312.5,167.5C 312.5,182.5 312.5,197.5 312.5,212.5C 230.5,212.5 148.5,212.5 66.5,212.5C 66.5,197.5 66.5,182.5 66.5,167.5 Z"/></g>
<g><path style="opacity:0.084" fill="#fefffe" d="M 48.5,150.5 C 48.5,151.5 48.5,152.5 48.5,153.5C 44.5,152.5 44.5,151.5 48.5,150.5 Z"/></g>
</svg>
